<svg id="Layer_1" data-name="Layer 1" xmlns="http://www.w3.org/2000/svg" viewBox="0 0 68.43 68.43"><title>gem-silver</title><polygon points="55.45 68.43 68.43 55.45 68.43 12.98 55.45 0 12.98 0 0 12.98 0 55.45 12.98 68.43 55.45 68.43" style="fill:#c0cdd9"/><polygon points="49.61 58.29 19.2 58.29 12.98 68.43 12.98 68.43 55.43 68.43 55.43 68.4 49.61 58.29" style="fill:#8090a0"/><polygon points="49.16 58.29 58.29 49.16 58.29 19.27 49.16 10.14 19.27 10.14 10.14 19.27 10.14 49.16 19.27 58.29 49.16 58.29" style="fill:#e8f0f8"/><polygon points="12.98 68.43 19.27 58.29 10.14 49.16 0 55.45 12.98 68.43" style="fill:#a0b0bf"/><polygon points="0 12.98 10.14 19.27 19.27 10.14 12.98 0 0 12.98" style="fill:#b0bfcc"/><polygon points="55.45 68.43 49.16 58.29 58.29 49.16 68.43 55.45 55.45 68.43" style="fill:#a0b0bf"/><polygon points="68.43 12.98 58.29 19.27 49.16 10.14 55.45 0 68.43 12.98" style="fill:#f0f5ff"/></svg>
